<svg xmlns="http://www.w3.org/2000/svg" viewBox="0 0 380.0 285.0"><style>:root{--mono:'DM Mono',ui-monospace,Menlo,Consolas,monospace;--line:#8e9397;--detail:#c3c6c8;--body:#ececeb;--deck:#f3f3f2;--recess:#e2e4e4;--ink:#6a6f73;--glass-on:#f3e6da;--accent:#f06a00;--accent-hi:#ff8c2e;--accent-dim:rgba(240,106,0,.08)}@media (prefers-color-scheme:dark){:root{--line:#3d4144;--detail:#2b2e30;--body:#17181a;--deck:#1b1d1f;--recess:#0e0f10;--ink:#868b8f;--glass-on:#1a1410;--accent:#ff7a1a;--accent-hi:#ffb070;--accent-dim:rgba(255,122,26,.10)}}text{font-family:var(--mono)}.face{fill:var(--body);stroke:var(--line);stroke-width:1;vector-effect:non-scaling-stroke;stroke-linejoin:round}.face.top{fill:var(--deck)}.face.recess{fill:var(--recess)}.detail{fill:none;stroke:var(--detail);stroke-width:1;vector-effect:non-scaling-stroke;stroke-linecap:round}.label{fill:var(--ink)}.wire{fill:none;stroke:var(--line);stroke-width:1;vector-effect:non-scaling-stroke;stroke-linecap:round;stroke-linejoin:round}.dash{stroke-dasharray:3 3}.led{fill:var(--detail)}.led.hot,.spark{fill:var(--accent)}.halo{fill:var(--accent);opacity:.22}.face.hot{fill:var(--accent);stroke:var(--accent-hi)}.face.top.hot{fill:var(--accent-hi)}.face.glass{fill:var(--glass-on);stroke:var(--accent)}.zone{fill:var(--accent-dim);stroke:var(--accent);stroke-width:1;vector-effect:non-scaling-stroke}.wire.hot,.detail.hot{stroke:var(--accent)}.label.hot{fill:var(--accent)}.pulse{fill:none;stroke:var(--accent-hi);stroke-width:2.2;vector-effect:non-scaling-stroke;stroke-linecap:round;stroke-dasharray:70 1200;stroke-dashoffset:70;opacity:0;animation:pulse 2.4s linear infinite}@keyframes pulse{0%{stroke-dashoffset:70;opacity:1}60%{stroke-dashoffset:-1000;opacity:1}61%,100%{opacity:0}}.spin{animation:spin 6s linear infinite}.spin.rev{animation-direction:reverse}@keyframes spin{to{transform:rotate(360deg)}}.blink{animation:blink 1.2s steps(1) infinite}@keyframes blink{50%{opacity:.12}}.breathe{animation:breathe 2.4s ease-in-out infinite}@keyframes breathe{50%{opacity:.3}}.halo.breathe{animation-name:halo}@keyframes halo{50%{opacity:.05}}.seq{animation:seq 2.4s steps(1) infinite;opacity:.15}@keyframes seq{0%,30%{opacity:1}}.flow{animation:flow .6s linear infinite}@keyframes flow{to{stroke-dashoffset:-6}}.run{animation:run 1.2s linear infinite}@keyframes run{to{transform:translate(var(--dx),var(--dy))}}.spark{animation:spark 1.6s ease-out infinite;opacity:0}@keyframes spark{0%{opacity:0}15%{opacity:1}60%,100%{opacity:0}}.drop{animation:drop 3.2s cubic-bezier(.5,0,.3,1) infinite}@keyframes drop{0%{transform:translate(var(--dx),var(--dy));opacity:0}12%{opacity:1}40%{transform:none}46%{transform:translateY(1.5px)}52%,82%{transform:none;opacity:1}100%{opacity:0}}.rise{animation:rise 3.6s ease-out infinite;opacity:0}@keyframes rise{0%{opacity:0;transform:translateY(10px)}18%,80%{opacity:1;transform:none}100%{opacity:0}}.bob{animation:bob 1.6s ease-in-out infinite}@keyframes bob{50%{transform:translate(var(--dx),var(--dy))}}@media (prefers-reduced-motion:reduce){*{animation:none!important}.rise,.spark,.seq{opacity:1}}.still *{animation:none!important}.still .rise,.still .spark,.still .seq{opacity:1}</style><defs><filter id="glow" filterUnits="userSpaceOnUse" x="-2000" y="-2000" width="6000" height="6000"><feGaussianBlur stdDeviation="4" result="b"/><feMerge><feMergeNode in="b"/><feMergeNode in="b"/><feMergeNode in="SourceGraphic"/></feMerge></filter><filter id="soft" filterUnits="userSpaceOnUse" x="-2000" y="-2000" width="6000" height="6000"><feGaussianBlur stdDeviation="2.2" result="b"/><feMerge><feMergeNode in="b"/><feMergeNode in="SourceGraphic"/></feMerge></filter><filter id="bloom" filterUnits="userSpaceOnUse" x="-2000" y="-2000" width="6000" height="6000"><feGaussianBlur stdDeviation="9"/></filter></defs><g transform="translate(159.70 51.97)"><path class="face" d="M-133.49 75.00L-133.43 74.31L-133.26 73.62L-132.96 72.95L-132.56 72.29L-132.04 71.67L-131.43 71.07L-130.71 70.51L-129.90 70.00L-8.66 0.00L-7.77 -0.47L-6.80 -0.88L-5.77 -1.24L-4.69 -1.53L-3.56 -1.77L-2.39 -1.94L-1.20 -2.04L-0.00 -2.07L1.20 -2.04L2.39 -1.94L3.56 -1.77L4.69 -1.53L5.77 -1.24L6.80 -0.88L7.77 -0.47L8.66 -0.00L190.53 105.00L191.33 105.51L192.05 106.07L192.67 106.67L193.18 107.29L193.59 107.95L193.88 108.62L194.05 109.31L194.11 110.00L194.11 115.00L194.05 115.69L193.88 116.38L193.59 117.05L193.18 117.71L192.67 118.33L192.05 118.93L191.33 119.49L190.53 120.00L69.28 190.00L68.39 190.47L67.43 190.88L66.39 191.24L65.31 191.53L64.18 191.77L63.01 191.94L61.82 192.04L60.62 192.07L59.42 192.04L58.23 191.94L57.07 191.77L55.94 191.53L54.85 191.24L53.82 190.88L52.85 190.47L51.96 190.00L-129.90 85.00L-130.71 84.49L-131.43 83.93L-132.04 83.33L-132.56 82.71L-132.96 82.05L-133.26 81.38L-133.43 80.69L-133.49 80.00Z"/><path class="detail" d="M69.28 190.00L69.28 185.00"/><path class="detail" d="M51.96 190.00L51.96 185.00"/><g transform="matrix(0.8660 0.5000 -0.8660 0.5000 0.00 -5.00)"><rect class="face top" x="0" y="0" width="230" height="160" rx="10"/><rect class="detail" x="8" y="8" width="214" height="144" rx="7"/><circle class="face recess" cx="15" cy="15" r="3"/><line class="detail" x1="13.2" y1="15" x2="16.8" y2="15"/><circle class="face recess" cx="15" cy="145" r="3"/><line class="detail" x1="13.2" y1="145" x2="16.8" y2="145"/><circle class="face recess" cx="215" cy="15" r="3"/><line class="detail" x1="213.2" y1="15" x2="216.8" y2="15"/><circle class="face recess" cx="215" cy="145" r="3"/><line class="detail" x1="213.2" y1="145" x2="216.8" y2="145"/></g><path class="face" d="M-113.72 57.00L-113.67 56.45L-113.53 55.90L-113.30 55.36L-112.97 54.84L-112.56 54.33L-112.07 53.86L-111.50 53.41L-110.85 53.00L-6.93 -7.00L-6.22 -7.37L-5.44 -7.70L-4.62 -7.99L-3.75 -8.23L-2.84 -8.41L-1.91 -8.55L-0.96 -8.63L-0.00 -8.66L0.96 -8.63L1.91 -8.55L2.84 -8.41L3.75 -8.23L4.62 -7.99L5.44 -7.70L6.22 -7.37L6.93 -7.00L171.47 88.00L172.12 88.41L172.69 88.86L173.19 89.33L173.60 89.83L173.92 90.36L174.16 90.90L174.30 91.45L174.34 92.00L174.34 110.00L174.30 110.55L174.16 111.10L173.92 111.64L173.60 112.17L173.19 112.67L172.69 113.14L172.12 113.59L171.47 114.00L67.55 174.00L66.84 174.37L66.06 174.70L65.24 174.99L64.37 175.23L63.47 175.41L62.53 175.55L61.58 175.63L60.62 175.66L59.66 175.63L58.71 175.55L57.78 175.41L56.87 175.23L56.00 174.99L55.18 174.70L54.41 174.37L53.69 174.00L-110.85 79.00L-111.50 78.59L-112.07 78.14L-112.56 77.67L-112.97 77.17L-113.30 76.64L-113.53 76.10L-113.67 75.55L-113.72 75.00Z"/><path class="detail" d="M67.55 174.00L67.55 156.00"/><path class="detail" d="M53.69 174.00L53.69 156.00"/><g transform="matrix(0.8660 -0.5000 0.0000 1.0000 60.62 160.00)"><line class="detail" x1="20" y1="4" x2="20" y2="14"/><line class="detail" x1="23" y1="4" x2="23" y2="14"/><line class="detail" x1="26" y1="4" x2="26" y2="14"/><line class="detail" x1="29" y1="4" x2="29" y2="14"/><line class="detail" x1="32" y1="4" x2="32" y2="14"/><line class="detail" x1="35" y1="4" x2="35" y2="14"/><line class="detail" x1="38" y1="4" x2="38" y2="14"/><line class="detail" x1="41" y1="4" x2="41" y2="14"/><line class="detail" x1="44" y1="4" x2="44" y2="14"/><line class="detail" x1="47" y1="4" x2="47" y2="14"/><line class="detail" x1="50" y1="4" x2="50" y2="14"/><line class="detail" x1="53" y1="4" x2="53" y2="14"/><line class="detail" x1="56" y1="4" x2="56" y2="14"/><line class="detail" x1="59" y1="4" x2="59" y2="14"/><line class="detail" x1="62" y1="4" x2="62" y2="14"/><line class="detail" x1="65" y1="4" x2="65" y2="14"/><line class="detail" x1="68" y1="4" x2="68" y2="14"/><line class="detail" x1="71" y1="4" x2="71" y2="14"/><line class="detail" x1="74" y1="4" x2="74" y2="14"/><line class="detail" x1="77" y1="4" x2="77" y2="14"/><line class="detail" x1="80" y1="4" x2="80" y2="14"/><line class="detail" x1="83" y1="4" x2="83" y2="14"/><line class="detail" x1="86" y1="4" x2="86" y2="14"/><line class="detail" x1="89" y1="4" x2="89" y2="14"/><line class="detail" x1="92" y1="4" x2="92" y2="14"/><line class="detail" x1="95" y1="4" x2="95" y2="14"/><line class="detail" x1="98" y1="4" x2="98" y2="14"/><line class="detail" x1="101" y1="4" x2="101" y2="14"/><line class="detail" x1="104" y1="4" x2="104" y2="14"/><line class="detail" x1="107" y1="4" x2="107" y2="14"/><line class="detail" x1="110" y1="4" x2="110" y2="14"/><line class="detail" x1="113" y1="4" x2="113" y2="14"/><line class="detail" x1="116" y1="4" x2="116" y2="14"/></g><g transform="matrix(0.8660 0.5000 0.0000 1.0000 -117.78 57.00)"><text class="label" x="10" y="11" font-size="5" text-anchor="start" letter-spacing="1.2">TH-2</text><line class="detail" x1="120" y1="4" x2="120" y2="14"/><line class="detail" x1="123" y1="4" x2="123" y2="14"/><line class="detail" x1="126" y1="4" x2="126" y2="14"/><line class="detail" x1="129" y1="4" x2="129" y2="14"/><line class="detail" x1="132" y1="4" x2="132" y2="14"/><line class="detail" x1="135" y1="4" x2="135" y2="14"/><line class="detail" x1="138" y1="4" x2="138" y2="14"/><line class="detail" x1="141" y1="4" x2="141" y2="14"/><line class="detail" x1="144" y1="4" x2="144" y2="14"/><line class="detail" x1="147" y1="4" x2="147" y2="14"/><line class="detail" x1="150" y1="4" x2="150" y2="14"/><line class="detail" x1="153" y1="4" x2="153" y2="14"/><line class="detail" x1="156" y1="4" x2="156" y2="14"/><line class="detail" x1="159" y1="4" x2="159" y2="14"/><line class="detail" x1="162" y1="4" x2="162" y2="14"/><line class="detail" x1="165" y1="4" x2="165" y2="14"/><line class="detail" x1="168" y1="4" x2="168" y2="14"/><line class="detail" x1="171" y1="4" x2="171" y2="14"/><line class="detail" x1="174" y1="4" x2="174" y2="14"/><line class="detail" x1="177" y1="4" x2="177" y2="14"/><line class="detail" x1="180" y1="4" x2="180" y2="14"/><line class="detail" x1="183" y1="4" x2="183" y2="14"/><line class="detail" x1="186" y1="4" x2="186" y2="14"/><line class="detail" x1="189" y1="4" x2="189" y2="14"/><line class="detail" x1="192" y1="4" x2="192" y2="14"/><line class="detail" x1="195" y1="4" x2="195" y2="14"/></g><g transform="matrix(0.8660 0.5000 -0.8660 0.5000 0.00 -11.00)"><rect class="face top" x="0" y="0" width="206" height="136" rx="8"/><rect class="detail" x="8" y="8" width="190" height="90" rx="6"/><text class="label" x="10" y="128" font-size="4.5" text-anchor="start" letter-spacing="1.4">REEL · TO · REEL</text></g><path class="face" d="M-29.52 37.00L-29.52 40.00A41.64 24.04 0 0 0 53.77 40.00L53.77 37.00A41.64 24.04 0 0 0 -29.52 37.00Z"/><g transform="matrix(0.8660 0.5000 -0.8660 0.5000 12.12 37.00)"><circle class="face top" cx="0" cy="0" r="34"/><g class="spin" style="transform-origin:0px 0px;animation-duration:7s"><circle class="face" cx="0" cy="0" r="34"/><circle class="detail" cx="0" cy="0" r="30"/><circle class="face top" cx="0" cy="0" r="12.24"/><circle class="face recess" cx="0" cy="0" r="4.42"/><circle class="face recess" cx="1.29078e-15" cy="21.08" r="5.44"/><circle class="face recess" cx="-18.2558" cy="-10.54" r="5.44"/><circle class="face recess" cx="18.2558" cy="-10.54" r="5.44"/></g></g><path class="face" d="M48.43 82.00L48.43 85.00A41.64 24.04 0 0 0 131.71 85.00L131.71 82.00A41.64 24.04 0 0 0 48.43 82.00Z"/><g transform="matrix(0.8660 0.5000 -0.8660 0.5000 90.07 82.00)"><circle class="face top" cx="0" cy="0" r="34"/><g class="spin" style="transform-origin:0px 0px;animation-duration:5s"><circle class="face" cx="0" cy="0" r="34"/><circle class="detail" cx="0" cy="0" r="18"/><circle class="face top" cx="0" cy="0" r="12.24"/><circle class="face recess" cx="0" cy="0" r="4.42"/><circle class="face recess" cx="1.29078e-15" cy="21.08" r="5.44"/><circle class="face recess" cx="-18.2558" cy="-10.54" r="5.44"/><circle class="face recess" cx="18.2558" cy="-10.54" r="5.44"/></g></g><path class="wire hot" d="M-17.32 54.00L-1.73 79.00L22.52 93.00L60.62 99.00" filter="url(#soft)"/><path class="pulse" pathLength="1000" d="M-17.32 54.00L-1.73 79.00L22.52 93.00L60.62 99.00" filter="url(#glow)" style="animation-delay:0s;animation-duration:1.6s"/><path class="face" d="M-2.70 79.00L-2.69 78.90L-2.67 78.79L-2.62 78.69L-2.56 78.59L-2.49 78.50L-2.39 78.41L-2.29 78.33L-2.17 78.25L3.90 74.75L4.03 74.68L4.18 74.62L4.33 74.56L4.49 74.52L4.66 74.48L4.84 74.46L5.02 74.44L5.20 74.44L5.38 74.44L5.55 74.46L5.73 74.48L5.90 74.52L6.06 74.56L6.22 74.62L6.36 74.68L6.50 74.75L21.22 83.25L21.34 83.33L21.45 83.41L21.54 83.50L21.62 83.59L21.68 83.69L21.72 83.79L21.75 83.90L21.76 84.00L21.76 92.00L21.75 92.10L21.72 92.21L21.68 92.31L21.62 92.41L21.54 92.50L21.45 92.59L21.34 92.67L21.22 92.75L15.15 96.25L15.02 96.32L14.88 96.38L14.72 96.44L14.56 96.48L14.39 96.52L14.21 96.54L14.04 96.56L13.86 96.56L13.68 96.56L13.50 96.54L13.32 96.52L13.15 96.48L12.99 96.44L12.84 96.38L12.69 96.32L12.56 96.25L-2.17 87.75L-2.29 87.67L-2.39 87.59L-2.49 87.50L-2.56 87.41L-2.62 87.31L-2.67 87.21L-2.69 87.10L-2.70 87.00Z"/><path class="detail" d="M15.16 96.25L15.16 88.25"/><path class="detail" d="M12.56 96.25L12.56 88.25"/><g transform="matrix(0.8660 0.5000 0.0000 1.0000 -3.46 79.00)"><line class="detail hot breathe" x1="10" y1="0" x2="10" y2="8"/></g><g transform="matrix(0.8660 0.5000 -0.8660 0.5000 5.20 74.00)"><rect class="face top" x="0" y="0" width="20" height="10" rx="1.5"/></g><g class=""><path class="face" d="M-90.78 49.00L-90.77 48.86L-90.74 48.72L-90.68 48.59L-90.60 48.46L-90.50 48.33L-90.37 48.21L-90.23 48.10L-90.07 48.00L-79.67 42.00L-79.50 41.91L-79.30 41.82L-79.10 41.75L-78.88 41.69L-78.65 41.65L-78.42 41.61L-78.18 41.59L-77.94 41.59L-77.70 41.59L-77.46 41.61L-77.23 41.65L-77.00 41.69L-76.79 41.75L-76.58 41.82L-76.39 41.91L-76.21 42.00L-65.82 48.00L-65.66 48.10L-65.51 48.21L-65.39 48.33L-65.29 48.46L-65.21 48.59L-65.15 48.72L-65.11 48.86L-65.10 49.00L-65.10 52.00L-65.11 52.14L-65.15 52.28L-65.21 52.41L-65.29 52.54L-65.39 52.67L-65.51 52.79L-65.66 52.90L-65.82 53.00L-76.21 59.00L-76.39 59.09L-76.58 59.18L-76.79 59.25L-77.00 59.31L-77.23 59.35L-77.46 59.39L-77.70 59.41L-77.94 59.41L-78.18 59.41L-78.42 59.39L-78.65 59.35L-78.88 59.31L-79.10 59.25L-79.30 59.18L-79.50 59.09L-79.67 59.00L-90.07 53.00L-90.23 52.90L-90.37 52.79L-90.50 52.67L-90.60 52.54L-90.68 52.41L-90.74 52.28L-90.77 52.14L-90.78 52.00Z"/><path class="detail" d="M-76.21 59.00L-76.21 56.00"/><path class="detail" d="M-79.67 59.00L-79.67 56.00"/><g transform="matrix(0.8660 0.5000 -0.8660 0.5000 -77.94 41.00)"><rect class="face top" x="0" y="0" width="16" height="16" rx="2"/><text class="label" x="8" y="9.5" font-size="3.2" text-anchor="middle" letter-spacing="0.6">REW</text></g></g><g class=""><path class="face" d="M-73.46 59.00L-73.45 58.86L-73.42 58.72L-73.36 58.59L-73.28 58.46L-73.17 58.33L-73.05 58.21L-72.91 58.10L-72.75 58.00L-62.35 52.00L-62.18 51.91L-61.98 51.82L-61.78 51.75L-61.56 51.69L-61.33 51.65L-61.10 51.61L-60.86 51.59L-60.62 51.59L-60.38 51.59L-60.14 51.61L-59.91 51.65L-59.68 51.69L-59.47 51.75L-59.26 51.82L-59.07 51.91L-58.89 52.00L-48.50 58.00L-48.34 58.10L-48.19 58.21L-48.07 58.33L-47.97 58.46L-47.88 58.59L-47.83 58.72L-47.79 58.86L-47.78 59.00L-47.78 62.00L-47.79 62.14L-47.83 62.28L-47.88 62.41L-47.97 62.54L-48.07 62.67L-48.19 62.79L-48.34 62.90L-48.50 63.00L-58.89 69.00L-59.07 69.09L-59.26 69.18L-59.47 69.25L-59.68 69.31L-59.91 69.35L-60.14 69.39L-60.38 69.41L-60.62 69.41L-60.86 69.41L-61.10 69.39L-61.33 69.35L-61.56 69.31L-61.78 69.25L-61.98 69.18L-62.18 69.09L-62.35 69.00L-72.75 63.00L-72.91 62.90L-73.05 62.79L-73.17 62.67L-73.28 62.54L-73.36 62.41L-73.42 62.28L-73.45 62.14L-73.46 62.00Z"/><path class="detail" d="M-58.89 69.00L-58.89 66.00"/><path class="detail" d="M-62.35 69.00L-62.35 66.00"/><g transform="matrix(0.8660 0.5000 -0.8660 0.5000 -60.62 51.00)"><rect class="face top" x="0" y="0" width="16" height="16" rx="2"/><text class="label" x="8" y="9.5" font-size="3.2" text-anchor="middle" letter-spacing="0.6">PLAY</text></g></g><g class=""><path class="face" d="M-56.14 69.00L-56.13 68.86L-56.10 68.72L-56.04 68.59L-55.96 68.46L-55.85 68.33L-55.73 68.21L-55.59 68.10L-55.43 68.00L-45.03 62.00L-44.85 61.91L-44.66 61.82L-44.46 61.75L-44.24 61.69L-44.01 61.65L-43.78 61.61L-43.54 61.59L-43.30 61.59L-43.06 61.59L-42.82 61.61L-42.59 61.65L-42.36 61.69L-42.15 61.75L-41.94 61.82L-41.75 61.91L-41.57 62.00L-31.18 68.00L-31.02 68.10L-30.87 68.21L-30.75 68.33L-30.65 68.46L-30.57 68.59L-30.51 68.72L-30.47 68.86L-30.46 69.00L-30.46 72.00L-30.47 72.14L-30.51 72.28L-30.57 72.41L-30.65 72.54L-30.75 72.67L-30.87 72.79L-31.02 72.90L-31.18 73.00L-41.57 79.00L-41.75 79.09L-41.94 79.18L-42.15 79.25L-42.36 79.31L-42.59 79.35L-42.82 79.39L-43.06 79.41L-43.30 79.41L-43.54 79.41L-43.78 79.39L-44.01 79.35L-44.24 79.31L-44.46 79.25L-44.66 79.18L-44.85 79.09L-45.03 79.00L-55.43 73.00L-55.59 72.90L-55.73 72.79L-55.85 72.67L-55.96 72.54L-56.04 72.41L-56.10 72.28L-56.13 72.14L-56.14 72.00Z"/><path class="detail" d="M-41.57 79.00L-41.57 76.00"/><path class="detail" d="M-45.03 79.00L-45.03 76.00"/><g transform="matrix(0.8660 0.5000 -0.8660 0.5000 -43.30 61.00)"><rect class="face top" x="0" y="0" width="16" height="16" rx="2"/><text class="label" x="8" y="9.5" font-size="3.2" text-anchor="middle" letter-spacing="0.6">FF</text></g></g><g class="breathe"><g filter="url(#soft)"><path class="face hot" d="M-38.82 79.00L-38.81 78.86L-38.77 78.72L-38.72 78.59L-38.64 78.46L-38.53 78.33L-38.41 78.21L-38.27 78.10L-38.10 78.00L-27.71 72.00L-27.54 71.91L-27.34 71.82L-27.14 71.75L-26.92 71.69L-26.69 71.65L-26.46 71.61L-26.22 71.59L-25.98 71.59L-25.74 71.59L-25.50 71.61L-25.27 71.65L-25.04 71.69L-24.83 71.75L-24.62 71.82L-24.43 71.91L-24.25 72.00L-13.86 78.00L-13.70 78.10L-13.55 78.21L-13.43 78.33L-13.32 78.46L-13.24 78.59L-13.19 78.72L-13.15 78.86L-13.14 79.00L-13.14 82.00L-13.15 82.14L-13.19 82.28L-13.24 82.41L-13.32 82.54L-13.43 82.67L-13.55 82.79L-13.70 82.90L-13.86 83.00L-24.25 89.00L-24.43 89.09L-24.62 89.18L-24.83 89.25L-25.04 89.31L-25.27 89.35L-25.50 89.39L-25.74 89.41L-25.98 89.41L-26.22 89.41L-26.46 89.39L-26.69 89.35L-26.92 89.31L-27.14 89.25L-27.34 89.18L-27.54 89.09L-27.71 89.00L-38.10 83.00L-38.27 82.90L-38.41 82.79L-38.53 82.67L-38.64 82.54L-38.72 82.41L-38.77 82.28L-38.81 82.14L-38.82 82.00Z"/><path class="detail" d="M-24.25 89.00L-24.25 86.00"/><path class="detail" d="M-27.71 89.00L-27.71 86.00"/><g transform="matrix(0.8660 0.5000 -0.8660 0.5000 -25.98 71.00)"><rect class="face top hot" x="0" y="0" width="16" height="16" rx="2"/><text class="label" x="8" y="9.5" font-size="3.2" text-anchor="middle" letter-spacing="0.6">REC</text></g></g></g></g></svg>