<svg xmlns="http://www.w3.org/2000/svg" viewBox="0 0 204.2 153.1"><style>:root{--mono:'DM Mono',ui-monospace,Menlo,Consolas,monospace;--line:#8e9397;--detail:#c3c6c8;--body:#ececeb;--deck:#f3f3f2;--recess:#e2e4e4;--ink:#6a6f73;--glass-on:#f3e6da;--accent:#f06a00;--accent-hi:#ff8c2e;--accent-dim:rgba(240,106,0,.08)}@media (prefers-color-scheme:dark){:root{--line:#3d4144;--detail:#2b2e30;--body:#17181a;--deck:#1b1d1f;--recess:#0e0f10;--ink:#868b8f;--glass-on:#1a1410;--accent:#ff7a1a;--accent-hi:#ffb070;--accent-dim:rgba(255,122,26,.10)}}text{font-family:var(--mono)}.face{fill:var(--body);stroke:var(--line);stroke-width:1;vector-effect:non-scaling-stroke;stroke-linejoin:round}.face.top{fill:var(--deck)}.face.recess{fill:var(--recess)}.detail{fill:none;stroke:var(--detail);stroke-width:1;vector-effect:non-scaling-stroke;stroke-linecap:round}.label{fill:var(--ink)}.wire{fill:none;stroke:var(--line);stroke-width:1;vector-effect:non-scaling-stroke;stroke-linecap:round;stroke-linejoin:round}.dash{stroke-dasharray:3 3}.led{fill:var(--detail)}.led.hot,.spark{fill:var(--accent)}.halo{fill:var(--accent);opacity:.22}.face.hot{fill:var(--accent);stroke:var(--accent-hi)}.face.top.hot{fill:var(--accent-hi)}.face.glass{fill:var(--glass-on);stroke:var(--accent)}.zone{fill:var(--accent-dim);stroke:var(--accent);stroke-width:1;vector-effect:non-scaling-stroke}.wire.hot,.detail.hot{stroke:var(--accent)}.label.hot{fill:var(--accent)}.pulse{fill:none;stroke:var(--accent-hi);stroke-width:2.2;vector-effect:non-scaling-stroke;stroke-linecap:round;stroke-dasharray:70 1200;stroke-dashoffset:70;opacity:0;animation:pulse 2.4s linear infinite}@keyframes pulse{0%{stroke-dashoffset:70;opacity:1}60%{stroke-dashoffset:-1000;opacity:1}61%,100%{opacity:0}}.spin{animation:spin 6s linear infinite}.spin.rev{animation-direction:reverse}@keyframes spin{to{transform:rotate(360deg)}}.blink{animation:blink 1.2s steps(1) infinite}@keyframes blink{50%{opacity:.12}}.breathe{animation:breathe 2.4s ease-in-out infinite}@keyframes breathe{50%{opacity:.3}}.halo.breathe{animation-name:halo}@keyframes halo{50%{opacity:.05}}.seq{animation:seq 2.4s steps(1) infinite;opacity:.15}@keyframes seq{0%,30%{opacity:1}}.flow{animation:flow .6s linear infinite}@keyframes flow{to{stroke-dashoffset:-6}}.run{animation:run 1.2s linear infinite}@keyframes run{to{transform:translate(var(--dx),var(--dy))}}.spark{animation:spark 1.6s ease-out infinite;opacity:0}@keyframes spark{0%{opacity:0}15%{opacity:1}60%,100%{opacity:0}}.drop{animation:drop 3.2s cubic-bezier(.5,0,.3,1) infinite}@keyframes drop{0%{transform:translate(var(--dx),var(--dy));opacity:0}12%{opacity:1}40%{transform:none}46%{transform:translateY(1.5px)}52%,82%{transform:none;opacity:1}100%{opacity:0}}.rise{animation:rise 3.6s ease-out infinite;opacity:0}@keyframes rise{0%{opacity:0;transform:translateY(10px)}18%,80%{opacity:1;transform:none}100%{opacity:0}}.bob{animation:bob 1.6s ease-in-out infinite}@keyframes bob{50%{transform:translate(var(--dx),var(--dy))}}@media (prefers-reduced-motion:reduce){*{animation:none!important}.rise,.spark,.seq{opacity:1}}.still *{animation:none!important}.still .rise,.still .spark,.still .seq{opacity:1}</style><defs><filter id="glow" filterUnits="userSpaceOnUse" x="-2000" y="-2000" width="6000" height="6000"><feGaussianBlur stdDeviation="4" result="b"/><feMerge><feMergeNode in="b"/><feMergeNode in="b"/><feMergeNode in="SourceGraphic"/></feMerge></filter><filter id="soft" filterUnits="userSpaceOnUse" x="-2000" y="-2000" width="6000" height="6000"><feGaussianBlur stdDeviation="2.2" result="b"/><feMerge><feMergeNode in="b"/><feMergeNode in="SourceGraphic"/></feMerge></filter><filter id="bloom" filterUnits="userSpaceOnUse" x="-2000" y="-2000" width="6000" height="6000"><feGaussianBlur stdDeviation="9"/></filter></defs><g transform="translate(103.60 72.56)"><path class="face" d="M-57.58 17.00L-57.54 16.58L-57.44 16.17L-57.26 15.77L-57.02 15.38L-56.71 15.00L-56.34 14.64L-55.91 14.31L-55.43 14.00L-5.20 -15.00L-4.66 -15.28L-4.08 -15.53L-3.46 -15.74L-2.81 -15.92L-2.13 -16.06L-1.43 -16.16L-0.72 -16.22L-0.00 -16.24L0.72 -16.22L1.43 -16.16L2.13 -16.06L2.81 -15.92L3.46 -15.74L4.08 -15.53L4.66 -15.28L5.20 -15.00L55.43 14.00L55.91 14.31L56.34 14.64L56.71 15.00L57.02 15.38L57.26 15.77L57.44 16.17L57.54 16.58L57.58 17.00L57.58 35.00L57.54 35.42L57.44 35.83L57.26 36.23L57.02 36.62L56.71 37.00L56.34 37.36L55.91 37.69L55.43 38.00L5.20 67.00L4.66 67.28L4.08 67.53L3.46 67.74L2.81 67.92L2.13 68.06L1.43 68.16L0.72 68.22L0.00 68.24L-0.72 68.22L-1.43 68.16L-2.13 68.06L-2.81 67.92L-3.46 67.74L-4.08 67.53L-4.66 67.28L-5.20 67.00L-55.43 38.00L-55.91 37.69L-56.34 37.36L-56.71 37.00L-57.02 36.62L-57.26 36.23L-57.44 35.83L-57.54 35.42L-57.58 35.00Z"/><path class="detail" d="M5.20 67.00L5.20 49.00"/><path class="detail" d="M-5.20 67.00L-5.20 49.00"/><g transform="matrix(0.8660 0.5000 0.0000 1.0000 -60.62 17.00)"><text class="label" x="8" y="11" font-size="5" text-anchor="start" letter-spacing="0.6">000</text></g><g transform="matrix(0.8660 0.5000 -0.8660 0.5000 0.00 -18.00)"><rect class="face top" x="0" y="0" width="70" height="70" rx="6"/></g><path class="face" d="M-57.58 -5.00L-57.54 -5.42L-57.44 -5.83L-57.26 -6.23L-57.02 -6.62L-56.71 -7.00L-56.34 -7.36L-55.91 -7.69L-55.43 -8.00L-5.20 -37.00L-4.66 -37.28L-4.08 -37.53L-3.46 -37.74L-2.81 -37.92L-2.13 -38.06L-1.43 -38.16L-0.72 -38.22L-0.00 -38.24L0.72 -38.22L1.43 -38.16L2.13 -38.06L2.81 -37.92L3.46 -37.74L4.08 -37.53L4.66 -37.28L5.20 -37.00L55.43 -8.00L55.91 -7.69L56.34 -7.36L56.71 -7.00L57.02 -6.62L57.26 -6.23L57.44 -5.83L57.54 -5.42L57.58 -5.00L57.58 13.00L57.54 13.42L57.44 13.83L57.26 14.23L57.02 14.62L56.71 15.00L56.34 15.36L55.91 15.69L55.43 16.00L5.20 45.00L4.66 45.28L4.08 45.53L3.46 45.74L2.81 45.92L2.13 46.06L1.43 46.16L0.72 46.22L0.00 46.24L-0.72 46.22L-1.43 46.16L-2.13 46.06L-2.81 45.92L-3.46 45.74L-4.08 45.53L-4.66 45.28L-5.20 45.00L-55.43 16.00L-55.91 15.69L-56.34 15.36L-56.71 15.00L-57.02 14.62L-57.26 14.23L-57.44 13.83L-57.54 13.42L-57.58 13.00Z"/><path class="detail" d="M5.20 45.00L5.20 27.00"/><path class="detail" d="M-5.20 45.00L-5.20 27.00"/><g transform="matrix(0.8660 0.5000 0.0000 1.0000 -60.62 -5.00)"><text class="label" x="8" y="11" font-size="5" text-anchor="start" letter-spacing="0.6">001</text></g><g transform="matrix(0.8660 0.5000 -0.8660 0.5000 0.00 -40.00)"><rect class="face top" x="0" y="0" width="70" height="70" rx="6"/></g><g class="drop" style="--dx:0.00px;--dy:-28.00px"><path class="face glass" d="M-57.58 -27.00L-57.54 -27.42L-57.44 -27.83L-57.26 -28.23L-57.02 -28.62L-56.71 -29.00L-56.34 -29.36L-55.91 -29.69L-55.43 -30.00L-5.20 -59.00L-4.66 -59.28L-4.08 -59.53L-3.46 -59.74L-2.81 -59.92L-2.13 -60.06L-1.43 -60.16L-0.72 -60.22L-0.00 -60.24L0.72 -60.22L1.43 -60.16L2.13 -60.06L2.81 -59.92L3.46 -59.74L4.08 -59.53L4.66 -59.28L5.20 -59.00L55.43 -30.00L55.91 -29.69L56.34 -29.36L56.71 -29.00L57.02 -28.62L57.26 -28.23L57.44 -27.83L57.54 -27.42L57.58 -27.00L57.58 -9.00L57.54 -8.58L57.44 -8.17L57.26 -7.77L57.02 -7.38L56.71 -7.00L56.34 -6.64L55.91 -6.31L55.43 -6.00L5.20 23.00L4.66 23.28L4.08 23.53L3.46 23.74L2.81 23.92L2.13 24.06L1.43 24.16L0.72 24.22L0.00 24.24L-0.72 24.22L-1.43 24.16L-2.13 24.06L-2.81 23.92L-3.46 23.74L-4.08 23.53L-4.66 23.28L-5.20 23.00L-55.43 -6.00L-55.91 -6.31L-56.34 -6.64L-56.71 -7.00L-57.02 -7.38L-57.26 -7.77L-57.44 -8.17L-57.54 -8.58L-57.58 -9.00Z"/><path class="detail" d="M5.20 23.00L5.20 5.00"/><path class="detail" d="M-5.20 23.00L-5.20 5.00"/><g transform="matrix(0.8660 0.5000 0.0000 1.0000 -60.62 -27.00)"><text class="label hot" x="8" y="11" font-size="5" text-anchor="start" letter-spacing="0.6">002</text></g><g transform="matrix(0.8660 0.5000 -0.8660 0.5000 0.00 -62.00)"><rect class="face top glass" x="0" y="0" width="70" height="70" rx="6"/><circle class="halo" cx="35" cy="35" r="24" filter="url(#bloom)"/><rect class="detail hot" x="8" y="8" width="54" height="54" rx="4"/></g></g></g></svg>