<svg xmlns="http://www.w3.org/2000/svg" viewBox="0 0 370.0 277.5"><style>:root{--mono:'DM Mono',ui-monospace,Menlo,Consolas,monospace;--line:#8e9397;--detail:#c3c6c8;--body:#ececeb;--deck:#f3f3f2;--recess:#e2e4e4;--ink:#6a6f73;--glass-on:#f3e6da;--accent:#f06a00;--accent-hi:#ff8c2e;--accent-dim:rgba(240,106,0,.08)}@media (prefers-color-scheme:dark){:root{--line:#3d4144;--detail:#2b2e30;--body:#17181a;--deck:#1b1d1f;--recess:#0e0f10;--ink:#868b8f;--glass-on:#1a1410;--accent:#ff7a1a;--accent-hi:#ffb070;--accent-dim:rgba(255,122,26,.10)}}text{font-family:var(--mono)}.face{fill:var(--body);stroke:var(--line);stroke-width:1;vector-effect:non-scaling-stroke;stroke-linejoin:round}.face.top{fill:var(--deck)}.face.recess{fill:var(--recess)}.detail{fill:none;stroke:var(--detail);stroke-width:1;vector-effect:non-scaling-stroke;stroke-linecap:round}.label{fill:var(--ink)}.wire{fill:none;stroke:var(--line);stroke-width:1;vector-effect:non-scaling-stroke;stroke-linecap:round;stroke-linejoin:round}.dash{stroke-dasharray:3 3}.led{fill:var(--detail)}.led.hot,.spark{fill:var(--accent)}.halo{fill:var(--accent);opacity:.22}.face.hot{fill:var(--accent);stroke:var(--accent-hi)}.face.top.hot{fill:var(--accent-hi)}.face.glass{fill:var(--glass-on);stroke:var(--accent)}.zone{fill:var(--accent-dim);stroke:var(--accent);stroke-width:1;vector-effect:non-scaling-stroke}.wire.hot,.detail.hot{stroke:var(--accent)}.label.hot{fill:var(--accent)}.pulse{fill:none;stroke:var(--accent-hi);stroke-width:2.2;vector-effect:non-scaling-stroke;stroke-linecap:round;stroke-dasharray:70 1200;stroke-dashoffset:70;opacity:0;animation:pulse 2.4s linear infinite}@keyframes pulse{0%{stroke-dashoffset:70;opacity:1}60%{stroke-dashoffset:-1000;opacity:1}61%,100%{opacity:0}}.spin{animation:spin 6s linear infinite}.spin.rev{animation-direction:reverse}@keyframes spin{to{transform:rotate(360deg)}}.blink{animation:blink 1.2s steps(1) infinite}@keyframes blink{50%{opacity:.12}}.breathe{animation:breathe 2.4s ease-in-out infinite}@keyframes breathe{50%{opacity:.3}}.halo.breathe{animation-name:halo}@keyframes halo{50%{opacity:.05}}.seq{animation:seq 2.4s steps(1) infinite;opacity:.15}@keyframes seq{0%,30%{opacity:1}}.flow{animation:flow .6s linear infinite}@keyframes flow{to{stroke-dashoffset:-6}}.run{animation:run 1.2s linear infinite}@keyframes run{to{transform:translate(var(--dx),var(--dy))}}.spark{animation:spark 1.6s ease-out infinite;opacity:0}@keyframes spark{0%{opacity:0}15%{opacity:1}60%,100%{opacity:0}}.drop{animation:drop 3.2s cubic-bezier(.5,0,.3,1) infinite}@keyframes drop{0%{transform:translate(var(--dx),var(--dy));opacity:0}12%{opacity:1}40%{transform:none}46%{transform:translateY(1.5px)}52%,82%{transform:none;opacity:1}100%{opacity:0}}.rise{animation:rise 3.6s ease-out infinite;opacity:0}@keyframes rise{0%{opacity:0;transform:translateY(10px)}18%,80%{opacity:1;transform:none}100%{opacity:0}}.bob{animation:bob 1.6s ease-in-out infinite}@keyframes bob{50%{transform:translate(var(--dx),var(--dy))}}@media (prefers-reduced-motion:reduce){*{animation:none!important}.rise,.spark,.seq{opacity:1}}.still *{animation:none!important}.still .rise,.still .spark,.still .seq{opacity:1}</style><defs><filter id="glow" filterUnits="userSpaceOnUse" x="-2000" y="-2000" width="6000" height="6000"><feGaussianBlur stdDeviation="4" result="b"/><feMerge><feMergeNode in="b"/><feMergeNode in="b"/><feMergeNode in="SourceGraphic"/></feMerge></filter><filter id="soft" filterUnits="userSpaceOnUse" x="-2000" y="-2000" width="6000" height="6000"><feGaussianBlur stdDeviation="2.2" result="b"/><feMerge><feMergeNode in="b"/><feMergeNode in="SourceGraphic"/></feMerge></filter><filter id="bloom" filterUnits="userSpaceOnUse" x="-2000" y="-2000" width="6000" height="6000"><feGaussianBlur stdDeviation="9"/></filter></defs><g transform="translate(133.03 58.70)"><path class="face" d="M-107.51 60.00L-107.45 59.31L-107.28 58.62L-106.98 57.95L-106.58 57.29L-106.06 56.67L-105.45 56.07L-104.73 55.51L-103.92 55.00L-8.66 0.00L-7.77 -0.47L-6.80 -0.88L-5.77 -1.24L-4.69 -1.53L-3.56 -1.77L-2.39 -1.94L-1.20 -2.04L-0.00 -2.07L1.20 -2.04L2.39 -1.94L3.56 -1.77L4.69 -1.53L5.77 -1.24L6.80 -0.88L7.77 -0.47L8.66 -0.00L207.85 115.00L208.65 115.51L209.37 116.07L209.99 116.67L210.50 117.29L210.91 117.95L211.20 118.62L211.37 119.31L211.43 120.00L211.43 125.00L211.37 125.69L211.20 126.38L210.91 127.05L210.50 127.71L209.99 128.33L209.37 128.93L208.65 129.49L207.85 130.00L112.58 185.00L111.69 185.47L110.73 185.88L109.70 186.24L108.61 186.53L107.48 186.77L106.31 186.94L105.12 187.04L103.92 187.07L102.72 187.04L101.53 186.94L100.37 186.77L99.24 186.53L98.15 186.24L97.12 185.88L96.15 185.47L95.26 185.00L-103.92 70.00L-104.73 69.49L-105.45 68.93L-106.06 68.33L-106.58 67.71L-106.98 67.05L-107.28 66.38L-107.45 65.69L-107.51 65.00Z"/><path class="detail" d="M112.58 185.00L112.58 180.00"/><path class="detail" d="M95.26 185.00L95.26 180.00"/><g transform="matrix(0.8660 0.5000 -0.8660 0.5000 0.00 -5.00)"><rect class="face top" x="0" y="0" width="250" height="130" rx="10"/><rect class="detail" x="8" y="8" width="234" height="114" rx="7"/><circle class="face recess" cx="15" cy="15" r="3"/><line class="detail" x1="13.2" y1="15" x2="16.8" y2="15"/><circle class="face recess" cx="15" cy="115" r="3"/><line class="detail" x1="13.2" y1="115" x2="16.8" y2="115"/><circle class="face recess" cx="235" cy="15" r="3"/><line class="detail" x1="233.2" y1="15" x2="236.8" y2="15"/><circle class="face recess" cx="235" cy="115" r="3"/><line class="detail" x1="233.2" y1="115" x2="236.8" y2="115"/></g><path class="face" d="M-69.70 13.00L-69.67 12.58L-69.56 12.17L-69.39 11.77L-69.14 11.38L-68.83 11.00L-68.46 10.64L-68.03 10.31L-67.55 10.00L-8.66 -24.00L-8.13 -24.28L-7.55 -24.53L-6.93 -24.74L-6.28 -24.92L-5.60 -25.06L-4.90 -25.16L-4.18 -25.22L-3.46 -25.24L-2.74 -25.22L-2.03 -25.16L-1.33 -25.06L-0.65 -24.92L-0.00 -24.74L0.62 -24.53L1.20 -24.28L1.73 -24.00L77.94 20.00L78.43 20.31L78.86 20.64L79.23 21.00L79.53 21.38L79.78 21.77L79.95 22.17L80.06 22.58L80.09 23.00L80.09 65.00L80.06 65.42L79.95 65.83L79.78 66.23L79.53 66.62L79.23 67.00L78.86 67.36L78.43 67.69L77.94 68.00L19.05 102.00L18.52 102.28L17.94 102.53L17.32 102.74L16.67 102.92L15.99 103.06L15.29 103.16L14.58 103.22L13.86 103.24L13.14 103.22L12.42 103.16L11.72 103.06L11.04 102.92L10.39 102.74L9.77 102.53L9.20 102.28L8.66 102.00L-67.55 58.00L-68.03 57.69L-68.46 57.36L-68.83 57.00L-69.14 56.62L-69.39 56.23L-69.56 55.83L-69.67 55.42L-69.70 55.00Z"/><path class="detail" d="M19.05 102.00L19.05 60.00"/><path class="detail" d="M8.66 102.00L8.66 60.00"/><g transform="matrix(0.8660 -0.5000 0.0000 1.0000 13.86 63.00)"><rect class="face recess" x="30" y="14" width="22" height="14" rx="2"/><circle class="led hot seq" cx="37" cy="21" r="1.4" filter="url(#soft)" style="animation-delay:1.2s"/><circle class="led seq" cx="45" cy="21" r="1.4" filter="url(#soft)" style="animation-delay:1.5s"/></g><g transform="matrix(0.8660 0.5000 0.0000 1.0000 -72.75 13.00)"><text class="label" x="8" y="12" font-size="4.2" text-anchor="start" letter-spacing="1">HOST PLUGS IN</text><rect class="face recess" x="8" y="26" width="30" height="6" rx="3"/></g><g transform="matrix(0.8660 0.5000 -0.8660 0.5000 -3.46 -27.00)"><rect class="face top" x="0" y="0" width="100" height="80" rx="6"/><text class="label" x="10" y="15" font-size="7" text-anchor="start" letter-spacing="2.4">TAPEHEAD</text><text class="label" x="10" y="23" font-size="4.5" text-anchor="start" letter-spacing="0.6">kernel</text><line class="detail" x1="60" y1="46" x2="60" y2="70"/><line class="detail" x1="63" y1="46" x2="63" y2="70"/><line class="detail" x1="66" y1="46" x2="66" y2="70"/><line class="detail" x1="69" y1="46" x2="69" y2="70"/><line class="detail" x1="72" y1="46" x2="72" y2="70"/><line class="detail" x1="75" y1="46" x2="75" y2="70"/><line class="detail" x1="78" y1="46" x2="78" y2="70"/><line class="detail" x1="81" y1="46" x2="81" y2="70"/><line class="detail" x1="84" y1="46" x2="84" y2="70"/><line class="detail" x1="87" y1="46" x2="87" y2="70"/><line class="detail" x1="90" y1="46" x2="90" y2="70"/></g><path class="face" d="M44.93 62.50L44.94 62.40L44.96 62.29L45.01 62.19L45.07 62.09L45.15 62.00L45.24 61.91L45.34 61.83L45.47 61.75L53.26 57.25L53.39 57.18L53.54 57.12L53.69 57.06L53.86 57.02L54.03 56.98L54.20 56.96L54.38 56.94L54.56 56.94L54.74 56.94L54.92 56.96L55.09 56.98L55.26 57.02L55.43 57.06L55.58 57.12L55.73 57.18L55.86 57.25L59.32 59.25L59.44 59.33L59.55 59.41L59.64 59.50L59.72 59.59L59.78 59.69L59.83 59.79L59.85 59.90L59.86 60.00L59.86 70.00L59.85 70.10L59.83 70.21L59.78 70.31L59.72 70.41L59.64 70.50L59.55 70.59L59.44 70.67L59.32 70.75L51.53 75.25L51.40 75.32L51.25 75.38L51.09 75.44L50.93 75.48L50.76 75.52L50.59 75.54L50.41 75.56L50.23 75.56L50.05 75.56L49.87 75.54L49.70 75.52L49.53 75.48L49.36 75.44L49.21 75.38L49.06 75.32L48.93 75.25L45.47 73.25L45.34 73.17L45.24 73.09L45.15 73.00L45.07 72.91L45.01 72.81L44.96 72.71L44.94 72.60L44.93 72.50Z"/><path class="detail" d="M51.53 75.25L51.53 65.25"/><path class="detail" d="M48.93 75.25L48.93 65.25"/><g transform="matrix(0.8660 0.5000 -0.8660 0.5000 54.56 56.50)"><rect class="face top" x="0" y="0" width="7" height="12" rx="1.5"/></g><path class="wire hot" d="M55.43 68.00L60.62 71.75L65.82 76.90L71.01 83.11L76.21 89.90L81.41 96.69L86.60 102.90L91.80 108.05L96.99 111.80L106.52 117.30" filter="url(#soft)"/><path class="pulse" pathLength="1000" d="M106.52 117.30L96.99 111.80L91.80 108.05L86.60 102.90L81.41 96.69L76.21 89.90L71.01 83.11L65.82 76.90L60.62 71.75L55.43 68.00" filter="url(#glow)" style="animation-delay:0s;animation-duration:2.4s"/><path class="face" d="M87.41 100.00L87.44 99.65L87.53 99.31L87.67 98.97L87.87 98.65L88.13 98.33L88.44 98.04L88.80 97.76L89.20 97.50L122.11 78.50L122.56 78.27L123.04 78.06L123.55 77.88L124.10 77.73L124.66 77.62L125.25 77.53L125.84 77.48L126.44 77.46L127.04 77.48L127.63 77.53L128.22 77.62L128.78 77.73L129.33 77.88L129.84 78.06L130.32 78.27L130.77 78.50L167.14 99.50L167.55 99.76L167.90 100.04L168.21 100.33L168.47 100.65L168.67 100.97L168.82 101.31L168.91 101.65L168.94 102.00L168.94 132.00L168.91 132.35L168.82 132.69L168.67 133.03L168.47 133.35L168.21 133.67L167.90 133.96L167.55 134.24L167.14 134.50L134.23 153.50L133.79 153.73L133.31 153.94L132.79 154.12L132.25 154.27L131.68 154.38L131.10 154.47L130.50 154.52L129.90 154.54L129.30 154.52L128.71 154.47L128.13 154.38L127.56 154.27L127.02 154.12L126.50 153.94L126.02 153.73L125.57 153.50L89.20 132.50L88.80 132.24L88.44 131.96L88.13 131.67L87.87 131.35L87.67 131.03L87.53 130.69L87.44 130.35L87.41 130.00Z"/><path class="detail" d="M134.23 153.50L134.23 123.50"/><path class="detail" d="M125.57 153.50L125.57 123.50"/><g transform="matrix(0.8660 -0.5000 0.0000 1.0000 129.90 126.00)"><line class="detail" x1="8" y1="6" x2="8" y2="24"/><line class="detail" x1="11" y1="6" x2="11" y2="24"/><line class="detail" x1="14" y1="6" x2="14" y2="24"/><line class="detail" x1="17" y1="6" x2="17" y2="24"/><line class="detail" x1="20" y1="6" x2="20" y2="24"/><line class="detail" x1="23" y1="6" x2="23" y2="24"/><line class="detail" x1="26" y1="6" x2="26" y2="24"/><line class="detail" x1="29" y1="6" x2="29" y2="24"/><line class="detail" x1="32" y1="6" x2="32" y2="24"/><line class="detail" x1="35" y1="6" x2="35" y2="24"/><line class="detail" x1="38" y1="6" x2="38" y2="24"/></g><g transform="matrix(0.8660 0.5000 0.0000 1.0000 84.87 100.00)"><circle class="led hot blink" cx="44" cy="8" r="1.8" filter="url(#soft)"/><line class="detail" x1="6" y1="6" x2="6" y2="24"/><line class="detail" x1="9" y1="6" x2="9" y2="24"/><line class="detail" x1="12" y1="6" x2="12" y2="24"/><line class="detail" x1="15" y1="6" x2="15" y2="24"/><line class="detail" x1="18" y1="6" x2="18" y2="24"/><line class="detail" x1="21" y1="6" x2="21" y2="24"/><line class="detail" x1="24" y1="6" x2="24" y2="24"/><line class="detail" x1="27" y1="6" x2="27" y2="24"/><line class="detail" x1="30" y1="6" x2="30" y2="24"/></g><g transform="matrix(0.8660 0.5000 -0.8660 0.5000 126.44 76.00)"><rect class="face top" x="0" y="0" width="52" height="48" rx="5"/><text class="label" x="26" y="20" font-size="5" text-anchor="middle" letter-spacing="1.4">PROVIDER</text><text class="label" x="26" y="28" font-size="3.4" text-anchor="middle" letter-spacing="0.6">openai-compat</text></g></g></svg>